<svg width="24" height="24" viewBox="0 0 24 24" fill="none" xmlns="http://www.w3.org/2000/svg">
<circle cx="12" cy="12" r="12" fill="#EBEDF0"/>
<path d="M18.8871 8.52773C18.7217 7.90526 18.2346 7.41498 17.6161 7.24857C16.4951 6.94629 12 6.94629 12 6.94629C12 6.94629 7.50484 6.94629 6.38378 7.2486C5.76531 7.41501 5.27822 7.90526 5.11291 8.52776C4.81253 9.65604 4.81253 12.0102 4.81253 12.0102C4.81253 12.0102 4.81253 14.3644 5.11291 15.4926C5.27822 16.1151 5.76531 16.585 6.38378 16.7514C7.50484 17.0537 12 17.0537 12 17.0537C12 17.0537 16.4951 17.0537 17.6161 16.7514C18.2346 16.5849 18.7217 16.1151 18.8871 15.4926C19.1875 14.3644 19.1875 12.0102 19.1875 12.0102C19.1875 12.0102 19.1875 9.65604 18.8871 8.52773Z" fill="#6D747A"/>
<path d="M10.5298 14.1473V9.87256L14.2869 12.01L10.5298 14.1473Z" fill="#EBEDF0"/>
</svg>
