<svg width="32" height="32" viewBox="0 0 32 32" fill="none" xmlns="http://www.w3.org/2000/svg">
<path d="M16 18.6667C18.2133 18.6667 20 16.8801 20 14.6667V6.66675C20 4.45341 18.2133 2.66675 16 2.66675C13.7867 2.66675 12 4.45341 12 6.66675V14.6667C12 16.8801 13.7867 18.6667 16 18.6667ZM23.88 14.6667C23.2267 14.6667 22.68 15.1467 22.5733 15.8001C22.0267 18.9334 19.2933 21.3334 16 21.3334C12.7067 21.3334 9.97334 18.9334 9.42667 15.8001C9.32 15.1467 8.77334 14.6667 8.12 14.6667C7.30667 14.6667 6.66667 15.3867 6.78667 16.1867C7.44 20.1867 10.64 23.3201 14.6667 23.8934V26.6667C14.6667 27.4001 15.2667 28.0001 16 28.0001C16.7333 28.0001 17.3333 27.4001 17.3333 26.6667V23.8934C21.36 23.3201 24.56 20.1867 25.2133 16.1867C25.3467 15.3867 24.6933 14.6667 23.88 14.6667Z" fill="white"/>
</svg>
