<svg width="16" height="16" viewBox="0 0 16 16" fill="none" xmlns="http://www.w3.org/2000/svg">
<g clip-path="url(#clip0_9_188)">
<path d="M7.99996 2.66675C4.66663 2.66675 1.81996 4.74008 0.666626 7.66675C1.81996 10.5934 4.66663 12.6667 7.99996 12.6667C11.3333 12.6667 14.18 10.5934 15.3333 7.66675C14.18 4.74008 11.3333 2.66675 7.99996 2.66675ZM7.99996 11.0001C6.15996 11.0001 4.66663 9.50675 4.66663 7.66675C4.66663 5.82675 6.15996 4.33341 7.99996 4.33341C9.83996 4.33341 11.3333 5.82675 11.3333 7.66675C11.3333 9.50675 9.83996 11.0001 7.99996 11.0001ZM7.99996 5.66675C6.89329 5.66675 5.99996 6.56008 5.99996 7.66675C5.99996 8.77342 6.89329 9.66675 7.99996 9.66675C9.10663 9.66675 9.99996 8.77342 9.99996 7.66675C9.99996 6.56008 9.10663 5.66675 7.99996 5.66675Z" fill="#6D747A"/>
</g>
<defs>
<clipPath id="clip0_9_188">
<rect width="16" height="16" fill="white"/>
</clipPath>
</defs>
</svg>
