<svg width="24" height="24" viewBox="0 0 24 24" fill="none" xmlns="http://www.w3.org/2000/svg">
<path d="M21.92 7.24996V7.37996L20.46 12.78C20.2875 13.4209 19.9072 13.9865 19.3788 14.3882C18.8504 14.7899 18.2038 15.0051 17.54 15H9.89002C9.13901 15.003 8.41417 14.7243 7.85872 14.2188C7.30327 13.7133 6.9576 13.0179 6.89001 12.27L6.24002 4.90996C6.21749 4.66064 6.10226 4.42884 5.91711 4.26035C5.73196 4.09186 5.49035 3.99895 5.24001 3.99996H3.07001C2.8048 3.99996 2.55044 3.89461 2.36291 3.70707C2.17537 3.51953 2.07001 3.26518 2.07001 2.99996C2.07001 2.73475 2.17537 2.48039 2.36291 2.29286C2.55044 2.10532 2.8048 1.99996 3.07001 1.99996H5.24001C5.99102 1.99692 6.71586 2.27566 7.27131 2.78112C7.82676 3.28659 8.17243 3.982 8.24002 4.72996V4.99996H19.93C20.2151 4.99773 20.4973 5.05646 20.7579 5.17222C21.0184 5.28798 21.2511 5.4581 21.4405 5.67117C21.6299 5.88424 21.7716 6.13534 21.856 6.40764C21.9404 6.67993 21.9657 6.96712 21.93 7.24996H21.92Z" fill="#8064A2"/>
<path d="M9.07001 22.0001C10.4507 22.0001 11.57 20.8808 11.57 19.5001C11.57 18.1193 10.4507 17.0001 9.07001 17.0001C7.6893 17.0001 6.57001 18.1193 6.57001 19.5001C6.57001 20.8808 7.6893 22.0001 9.07001 22.0001Z" fill="#8064A2"/>
<path d="M17.0701 22.0001C18.4508 22.0001 19.5701 20.8808 19.5701 19.5001C19.5701 18.1193 18.4508 17.0001 17.0701 17.0001C15.6893 17.0001 14.5701 18.1193 14.5701 19.5001C14.5701 20.8808 15.6893 22.0001 17.0701 22.0001Z" fill="#8064A2"/>
</svg>
