<svg width="20" height="20" viewBox="0 0 20 20" fill="none" xmlns="http://www.w3.org/2000/svg">
<path d="M9.9596 0.000244141C4.4679 0.000244141 0 4.46814 0 9.95984C0 15.4519 4.4679 19.9202 9.9596 19.9202C15.4513 19.9202 19.9192 15.4519 19.9192 9.95984C19.9196 4.46814 15.4517 0.000244141 9.9596 0.000244141ZM15.4625 9.23171V9.23211L12.5793 11.3182L13.6897 14.7122C13.7074 14.7651 13.7166 14.8217 13.7166 14.8795C13.7166 15.1759 13.4767 15.4166 13.1802 15.4166C13.0623 15.4166 12.954 15.3789 12.8657 15.3151L9.96 13.2134L7.05428 15.3151C6.96602 15.3789 6.85771 15.4166 6.74016 15.4166C6.44329 15.4166 6.20299 15.1763 6.20299 14.8795C6.20299 14.8213 6.21261 14.7651 6.23027 14.7122L7.34112 11.3182L4.45787 9.23211V9.23171C4.32307 9.13462 4.23562 8.97616 4.23562 8.79724C4.23562 8.50077 4.47552 8.26086 4.77239 8.26086H8.34166L9.4469 4.88256C9.51429 4.66311 9.71849 4.50345 9.9604 4.50345C10.2019 4.50345 10.4065 4.66311 10.4735 4.88256L11.5787 8.26086H15.148C15.4445 8.26086 15.6848 8.50077 15.6848 8.79724C15.6844 8.97616 15.5969 9.13462 15.4625 9.23171Z" fill="#8064A2"/>
</svg>
