<svg width="20" height="17" viewBox="0 0 20 17" fill="none" xmlns="http://www.w3.org/2000/svg">
<g filter="url(#filter0_d_2009_47)">
<path d="M14.0302 0.409535L10.1556 5.55054L6.28098 0.409535C5.89152 -0.107215 5.26239 -0.107215 4.87293 0.409535C4.48348 0.926285 4.48348 1.76103 4.87293 2.27778L9.45656 8.35953C9.84602 8.87628 10.4751 8.87628 10.8646 8.35953L15.4482 2.27778C15.8377 1.76103 15.8377 0.926285 15.4482 0.409535C15.0588 -0.0939648 14.4197 -0.107215 14.0302 0.409535V0.409535Z" fill="#6D747A"/>
<path d="M9.7563 5.85147L10.1556 6.38127L10.5549 5.85147L14.4295 0.710472C14.5407 0.562967 14.6553 0.526411 14.736 0.526931C14.8191 0.527466 14.9377 0.568058 15.0508 0.712988C15.3041 1.05198 15.3035 1.63909 15.0489 1.97685L10.4653 8.0586C10.3503 8.21121 10.2353 8.2471 10.1606 8.2471C10.0859 8.2471 9.97087 8.21121 9.85586 8.0586L5.27223 1.97685C5.01704 1.63826 5.01704 1.04906 5.27223 0.710472C5.38725 0.557864 5.50228 0.521973 5.57696 0.521973C5.65163 0.521973 5.76667 0.557864 5.88168 0.710472L9.7563 5.85147Z" stroke="black"/>
</g>
<defs>
<filter id="filter0_d_2009_47" x="0.580841" y="0.0219727" width="19.1595" height="16.7251" filterUnits="userSpaceOnUse" color-interpolation-filters="sRGB">
<feFlood flood-opacity="0" result="BackgroundImageFix"/>
<feColorMatrix in="SourceAlpha" type="matrix" values="0 0 0 0 0 0 0 0 0 0 0 0 0 0 0 0 0 0 127 0" result="hardAlpha"/>
<feOffset dy="4"/>
<feGaussianBlur stdDeviation="2"/>
<feComposite in2="hardAlpha" operator="out"/>
<feColorMatrix type="matrix" values="0 0 0 0 0 0 0 0 0 0 0 0 0 0 0 0 0 0 0.25 0"/>
<feBlend mode="normal" in2="BackgroundImageFix" result="effect1_dropShadow_2009_47"/>
<feBlend mode="normal" in="SourceGraphic" in2="effect1_dropShadow_2009_47" result="shape"/>
</filter>
</defs>
</svg>
