<svg width="40" height="20" viewBox="0 0 40 20" fill="none" xmlns="http://www.w3.org/2000/svg">
<path d="M2.83403 19.4286H37.5007C38.6924 19.4286 39.6674 18.7161 39.6674 17.8453C39.6674 16.9744 38.6924 16.2619 37.5007 16.2619H2.83403C1.64236 16.2619 0.667358 16.9744 0.667358 17.8453C0.667358 18.7161 1.64236 19.4286 2.83403 19.4286ZM2.83403 11.5119H37.5007C38.6924 11.5119 39.6674 10.7994 39.6674 9.92859C39.6674 9.05776 38.6924 8.34526 37.5007 8.34526H2.83403C1.64236 8.34526 0.667358 9.05776 0.667358 9.92859C0.667358 10.7994 1.64236 11.5119 2.83403 11.5119ZM0.667358 2.01192C0.667358 2.88276 1.64236 3.59526 2.83403 3.59526H37.5007C38.6924 3.59526 39.6674 2.88276 39.6674 2.01192C39.6674 1.14109 38.6924 0.428589 37.5007 0.428589H2.83403C1.64236 0.428589 0.667358 1.14109 0.667358 2.01192Z" fill="#8064A2"/>
</svg>
